<?xml version="1.0" standalone="no"?>
<!DOCTYPE svg PUBLIC "-//W3C//DTD SVG 20010904//EN"
 "http://www.w3.org/TR/2001/REC-SVG-20010904/DTD/svg10.dtd">
<svg version="1.0" xmlns="http://www.w3.org/2000/svg"
 width="512.000000pt" height="512.000000pt" viewBox="0 0 512.000000 512.000000"
 preserveAspectRatio="xMidYMid meet">
<metadata>
Created by potrace 1.14, written by Peter Selinger 2001-2017
</metadata>
<g transform="translate(0.000000,512.000000) scale(0.100000,-0.100000)"
fill="#000000" stroke="none">
<path d="M575 5110 c-139 -28 -265 -98 -372 -205 -67 -68 -90 -100 -128 -178
-25 -52 -52 -123 -60 -158 -11 -53 -13 -394 -14 -1997 -1 -2176 -7 -2014 76
-2182 39 -79 62 -110 133 -180 55 -55 106 -96 145 -115 33 -16 62 -32 65 -36
3 -3 37 -16 75 -30 l70 -24 1963 -3 c2206 -3 2027 -9 2202 75 187 90 338 287
376 488 12 69 14 343 12 2035 l-3 1955 -26 72 c-83 226 -236 379 -462 462
l-72 26 -1970 2 c-1084 0 -1988 -3 -2010 -7z m3958 -209 c127 -31 262 -137
324 -256 62 -120 59 -9 58 -2090 -1 -1045 -5 -1920 -9 -1945 -12 -67 -67 -179
-116 -233 -71 -80 -174 -140 -280 -163 -19 -4 -892 -8 -1940 -9 -1602 -1
-1915 1 -1970 13 -173 38 -316 168 -372 341 l-21 66 -1 1915 c-1 1515 1 1928
11 1977 27 135 134 277 253 338 124 64 -3 60 2101 59 1428 -1 1926 -4 1962
-13z"/>
<path d="M735 4741 c-177 -50 -312 -188 -359 -366 -14 -53 -16 -252 -16 -1820
0 -1686 1 -1763 19 -1821 54 -180 189 -312 366 -358 53 -14 253 -16 1814 -16
1935 0 1809 -4 1934 63 76 40 164 128 204 203 67 126 63 -3 63 1933 0 1938 4
1809 -63 1935 -67 125 -216 234 -352 256 -38 6 -712 10 -1805 9 -1618 0 -1749
-2 -1805 -18z m756 -1303 c-71 -70 -131 -128 -134 -128 -15 0 -256 254 -250
264 3 6 61 66 127 133 l121 121 132 -131 132 -131 -128 -128z m696 260 c68
-68 123 -126 123 -129 0 -8 -250 -259 -257 -259 -9 0 -253 248 -253 257 0 11
243 253 255 253 5 0 65 -55 132 -122z m1786 -586 c18 -19 19 -48 18 -848 0
-456 0 -848 0 -871 -1 -63 -21 -70 -213 -68 -136 0 -160 3 -175 18 -17 16 -18
56 -18 532 0 283 -2 515 -5 515 -3 -1 -83 -128 -179 -283 -96 -155 -235 -380
-309 -500 -74 -119 -143 -222 -153 -228 -11 -5 -29 -7 -40 -4 -24 8 -34 23
-177 270 l-110 190 0 285 c0 170 3 296 9 311 10 26 37 38 70 31 9 -2 56 -71
104 -153 114 -196 136 -205 209 -90 24 36 150 239 281 451 285 462 275 447
298 457 9 4 97 7 194 6 158 -2 179 -4 196 -21z m-2441 -1 l23 -19 0 -308 0
-308 -197 -117 -198 -118 0 423 c0 436 1 446 40 458 8 3 81 6 162 6 129 1 149
-1 170 -17z m695 4 c23 -15 24 -20 21 -122 l-3 -106 -190 -113 c-104 -62 -191
-111 -193 -109 -8 7 -5 422 3 434 14 23 50 29 194 30 115 1 149 -2 168 -14z
m23 -543 c-5 -43 -7 -45 -93 -98 -49 -30 -90 -54 -91 -54 -2 0 -48 -27 -102
-60 -112 -68 -115 -67 -104 31 l5 48 190 113 c187 112 190 114 195 89 3 -15 3
-46 0 -69z m1 -731 c1 -426 -1 -464 -17 -482 -16 -17 -32 -19 -180 -19 -134 0
-165 3 -178 16 -19 19 -18 -13 -18 389 -1 270 2 331 13 338 232 139 375 223
377 222 1 -1 3 -210 3 -464z m-696 344 c-1 -36 -4 -67 -6 -70 -3 -2 -92 -56
-197 -119 l-193 -115 3 71 3 72 105 62 c224 133 275 163 281 163 3 1 5 -28 4
-64z m0 -550 c0 -226 -2 -257 -18 -275 -16 -19 -29 -20 -179 -20 -136 0 -164
3 -180 17 -16 14 -18 33 -18 159 0 126 2 145 18 154 132 80 368 220 372 220 3
0 5 -115 5 -255z"/>
</g>
</svg>
